<mxfile host="app.diagrams.net" modified="2023-11-16T22:17:39.745Z" agent="Mozilla/5.0 (Windows NT 10.0; Win64; x64) AppleWebKit/537.36 (KHTML, like Gecko) Chrome/119.0.0.0 Safari/537.36" etag="x5mVqe4fauw0uBa1rqa9" version="22.1.2" type="github">
  <diagram name="Page-1" id="WVjAArECR-r44n3g0cuV">
    <mxGraphModel dx="1194" dy="750" grid="1" gridSize="10" guides="1" tooltips="1" connect="1" arrows="1" fold="1" page="1" pageScale="1" pageWidth="850" pageHeight="1100" math="0" shadow="1">
      <root>
        <mxCell id="0" />
        <mxCell id="1" parent="0" />
        <mxCell id="Kcn1vtvd_Udo2UhyRpVJ-1" value="SAST tool 1" style="shape=hexagon;perimeter=hexagonPerimeter2;whiteSpace=wrap;html=1;fixedSize=1;" vertex="1" parent="1">
          <mxGeometry x="340" y="200" width="120" height="80" as="geometry" />
        </mxCell>
        <mxCell id="Kcn1vtvd_Udo2UhyRpVJ-3" value="SAST tool 2" style="shape=hexagon;perimeter=hexagonPerimeter2;whiteSpace=wrap;html=1;fixedSize=1;" vertex="1" parent="1">
          <mxGeometry x="340" y="300" width="120" height="80" as="geometry" />
        </mxCell>
        <mxCell id="Kcn1vtvd_Udo2UhyRpVJ-4" value="SAST tool 3" style="shape=hexagon;perimeter=hexagonPerimeter2;whiteSpace=wrap;html=1;fixedSize=1;" vertex="1" parent="1">
          <mxGeometry x="340" y="400" width="120" height="80" as="geometry" />
        </mxCell>
        <mxCell id="Kcn1vtvd_Udo2UhyRpVJ-28" style="edgeStyle=orthogonalEdgeStyle;rounded=0;orthogonalLoop=1;jettySize=auto;html=1;entryX=1;entryY=0.5;entryDx=0;entryDy=0;" edge="1" parent="1" source="Kcn1vtvd_Udo2UhyRpVJ-7" target="Kcn1vtvd_Udo2UhyRpVJ-4">
          <mxGeometry relative="1" as="geometry">
            <Array as="points">
              <mxPoint x="560" y="150" />
              <mxPoint x="560" y="440" />
            </Array>
          </mxGeometry>
        </mxCell>
        <mxCell id="Kcn1vtvd_Udo2UhyRpVJ-29" style="edgeStyle=orthogonalEdgeStyle;rounded=0;orthogonalLoop=1;jettySize=auto;html=1;entryX=1;entryY=0.5;entryDx=0;entryDy=0;" edge="1" parent="1" source="Kcn1vtvd_Udo2UhyRpVJ-7" target="Kcn1vtvd_Udo2UhyRpVJ-1">
          <mxGeometry relative="1" as="geometry">
            <Array as="points">
              <mxPoint x="560" y="150" />
              <mxPoint x="560" y="240" />
            </Array>
          </mxGeometry>
        </mxCell>
        <mxCell id="Kcn1vtvd_Udo2UhyRpVJ-31" style="edgeStyle=orthogonalEdgeStyle;rounded=0;orthogonalLoop=1;jettySize=auto;html=1;entryX=1;entryY=0.5;entryDx=0;entryDy=0;" edge="1" parent="1" source="Kcn1vtvd_Udo2UhyRpVJ-7" target="Kcn1vtvd_Udo2UhyRpVJ-3">
          <mxGeometry relative="1" as="geometry">
            <Array as="points">
              <mxPoint x="560" y="150" />
              <mxPoint x="560" y="340" />
            </Array>
          </mxGeometry>
        </mxCell>
        <mxCell id="Kcn1vtvd_Udo2UhyRpVJ-36" style="edgeStyle=orthogonalEdgeStyle;rounded=0;orthogonalLoop=1;jettySize=auto;html=1;exitX=0.75;exitY=0;exitDx=0;exitDy=0;entryX=0;entryY=0.5;entryDx=0;entryDy=0;" edge="1" parent="1" source="Kcn1vtvd_Udo2UhyRpVJ-7" target="Kcn1vtvd_Udo2UhyRpVJ-37">
          <mxGeometry relative="1" as="geometry">
            <mxPoint x="650" y="80" as="targetPoint" />
          </mxGeometry>
        </mxCell>
        <mxCell id="Kcn1vtvd_Udo2UhyRpVJ-7" value="Controller Script" style="rounded=1;whiteSpace=wrap;html=1;" vertex="1" parent="1">
          <mxGeometry x="340" y="120" width="120" height="60" as="geometry" />
        </mxCell>
        <mxCell id="Kcn1vtvd_Udo2UhyRpVJ-22" style="edgeStyle=orthogonalEdgeStyle;rounded=0;orthogonalLoop=1;jettySize=auto;html=1;entryX=0;entryY=0.5;entryDx=0;entryDy=0;" edge="1" parent="1" source="Kcn1vtvd_Udo2UhyRpVJ-11" target="Kcn1vtvd_Udo2UhyRpVJ-1">
          <mxGeometry relative="1" as="geometry">
            <mxPoint x="290" y="340" as="targetPoint" />
          </mxGeometry>
        </mxCell>
        <mxCell id="Kcn1vtvd_Udo2UhyRpVJ-23" style="edgeStyle=orthogonalEdgeStyle;rounded=0;orthogonalLoop=1;jettySize=auto;html=1;exitX=1;exitY=0.5;exitDx=0;exitDy=0;entryX=0;entryY=0.5;entryDx=0;entryDy=0;" edge="1" parent="1" source="Kcn1vtvd_Udo2UhyRpVJ-11" target="Kcn1vtvd_Udo2UhyRpVJ-3">
          <mxGeometry relative="1" as="geometry" />
        </mxCell>
        <mxCell id="Kcn1vtvd_Udo2UhyRpVJ-24" style="edgeStyle=orthogonalEdgeStyle;rounded=0;orthogonalLoop=1;jettySize=auto;html=1;entryX=0;entryY=0.5;entryDx=0;entryDy=0;" edge="1" parent="1" source="Kcn1vtvd_Udo2UhyRpVJ-11" target="Kcn1vtvd_Udo2UhyRpVJ-4">
          <mxGeometry relative="1" as="geometry" />
        </mxCell>
        <mxCell id="Kcn1vtvd_Udo2UhyRpVJ-26" style="edgeStyle=orthogonalEdgeStyle;rounded=0;orthogonalLoop=1;jettySize=auto;html=1;entryX=0;entryY=0.5;entryDx=0;entryDy=0;" edge="1" parent="1" source="Kcn1vtvd_Udo2UhyRpVJ-11" target="Kcn1vtvd_Udo2UhyRpVJ-7">
          <mxGeometry relative="1" as="geometry">
            <Array as="points">
              <mxPoint x="250" y="150" />
            </Array>
          </mxGeometry>
        </mxCell>
        <mxCell id="Kcn1vtvd_Udo2UhyRpVJ-11" value="CI/CD Pipeline" style="rounded=1;whiteSpace=wrap;html=1;" vertex="1" parent="1">
          <mxGeometry x="150" y="310" width="120" height="60" as="geometry" />
        </mxCell>
        <mxCell id="Kcn1vtvd_Udo2UhyRpVJ-25" value="1" style="text;html=1;align=center;verticalAlign=middle;resizable=0;points=[];autosize=1;strokeColor=none;fillColor=none;" vertex="1" parent="1">
          <mxGeometry x="270" y="350" width="30" height="30" as="geometry" />
        </mxCell>
        <mxCell id="Kcn1vtvd_Udo2UhyRpVJ-27" value="2" style="text;html=1;align=center;verticalAlign=middle;resizable=0;points=[];autosize=1;strokeColor=none;fillColor=none;" vertex="1" parent="1">
          <mxGeometry x="225" y="200" width="30" height="30" as="geometry" />
        </mxCell>
        <mxCell id="Kcn1vtvd_Udo2UhyRpVJ-30" value="3" style="text;html=1;align=center;verticalAlign=middle;resizable=0;points=[];autosize=1;strokeColor=none;fillColor=none;" vertex="1" parent="1">
          <mxGeometry x="470" y="160" width="30" height="30" as="geometry" />
        </mxCell>
        <mxCell id="Kcn1vtvd_Udo2UhyRpVJ-34" style="edgeStyle=orthogonalEdgeStyle;rounded=0;orthogonalLoop=1;jettySize=auto;html=1;entryX=0.1;entryY=-0.067;entryDx=0;entryDy=0;entryPerimeter=0;" edge="1" parent="1" source="Kcn1vtvd_Udo2UhyRpVJ-7" target="Kcn1vtvd_Udo2UhyRpVJ-7">
          <mxGeometry relative="1" as="geometry">
            <Array as="points">
              <mxPoint x="400" y="70" />
              <mxPoint x="352" y="70" />
            </Array>
          </mxGeometry>
        </mxCell>
        <mxCell id="Kcn1vtvd_Udo2UhyRpVJ-35" value="4" style="text;html=1;align=center;verticalAlign=middle;resizable=0;points=[];autosize=1;strokeColor=none;fillColor=none;" vertex="1" parent="1">
          <mxGeometry x="360" y="40" width="30" height="30" as="geometry" />
        </mxCell>
        <mxCell id="Kcn1vtvd_Udo2UhyRpVJ-37" value="Issue Tracking Software" style="rounded=1;whiteSpace=wrap;html=1;" vertex="1" parent="1">
          <mxGeometry x="530" y="70" width="120" height="60" as="geometry" />
        </mxCell>
        <mxCell id="Kcn1vtvd_Udo2UhyRpVJ-38" value="5" style="text;html=1;align=center;verticalAlign=middle;resizable=0;points=[];autosize=1;strokeColor=none;fillColor=none;" vertex="1" parent="1">
          <mxGeometry x="455" y="68" width="30" height="30" as="geometry" />
        </mxCell>
        <mxCell id="Kcn1vtvd_Udo2UhyRpVJ-42" style="edgeStyle=orthogonalEdgeStyle;rounded=0;orthogonalLoop=1;jettySize=auto;html=1;entryX=0.5;entryY=1;entryDx=0;entryDy=0;" edge="1" parent="1" source="Kcn1vtvd_Udo2UhyRpVJ-39" target="Kcn1vtvd_Udo2UhyRpVJ-11">
          <mxGeometry relative="1" as="geometry" />
        </mxCell>
        <mxCell id="Kcn1vtvd_Udo2UhyRpVJ-39" value="Nightly Timer" style="rounded=1;whiteSpace=wrap;html=1;" vertex="1" parent="1">
          <mxGeometry x="115" y="510" width="120" height="60" as="geometry" />
        </mxCell>
        <mxCell id="Kcn1vtvd_Udo2UhyRpVJ-43" style="edgeStyle=orthogonalEdgeStyle;rounded=0;orthogonalLoop=1;jettySize=auto;html=1;entryX=0.5;entryY=1;entryDx=0;entryDy=0;" edge="1" parent="1" source="Kcn1vtvd_Udo2UhyRpVJ-41" target="Kcn1vtvd_Udo2UhyRpVJ-11">
          <mxGeometry relative="1" as="geometry">
            <Array as="points">
              <mxPoint x="270" y="440" />
              <mxPoint x="210" y="440" />
            </Array>
          </mxGeometry>
        </mxCell>
        <mxCell id="Kcn1vtvd_Udo2UhyRpVJ-41" value="Developer Merge Request" style="rounded=1;whiteSpace=wrap;html=1;" vertex="1" parent="1">
          <mxGeometry x="250" y="510" width="120" height="60" as="geometry" />
        </mxCell>
        <mxCell id="Kcn1vtvd_Udo2UhyRpVJ-44" value="0" style="text;html=1;align=center;verticalAlign=middle;resizable=0;points=[];autosize=1;strokeColor=none;fillColor=none;" vertex="1" parent="1">
          <mxGeometry x="140" y="460" width="30" height="30" as="geometry" />
        </mxCell>
      </root>
    </mxGraphModel>
  </diagram>
</mxfile>
